<svg xmlns="http://www.w3.org/2000/svg">
    <symbol id="icon-align-justify" viewBox="0 0 32 32">
        <path fill="none" stroke="#fff" style="stroke: var(--color1, #fff)" strokeLinejoin="round"
            strokeLinecap="round" stroke-miterlimit="4" stroke-width="2.2857" d="M28 13.333h-24"></path>
        <path fill="none" stroke="#fff" style="stroke: var(--color1, #fff)" strokeLinejoin="round"
            strokeLinecap="round" stroke-miterlimit="4" stroke-width="2.2857" d="M28 8h-24"></path>
        <path fill="none" stroke="#fff" style="stroke: var(--color1, #fff)" strokeLinejoin="round"
            strokeLinecap="round" stroke-miterlimit="4" stroke-width="2.2857" d="M28 18.667h-24"></path>
        <path fill="none" stroke="#fff" style="stroke: var(--color1, #fff)" strokeLinejoin="round"
            strokeLinecap="round" stroke-miterlimit="4" stroke-width="2.2857" d="M28 24h-24"></path>
    </symbol>
    <symbol id="icon-chevron-down-1" viewBox="0 0 32 32">
        <path strokeLinejoin="round" strokeLinecap="round" stroke-miterlimit="4" stroke-width="3.2"
            d="M8 20l8-8 8 8"></path>
    </symbol>
    <symbol id="icon-facebook" viewBox="0 0 32 32">
        <path
            d="M19.52 4.64c0.24 0 0.48 0 0.96 0v3.6c-0.24 0-0.72 0-1.2 0s-0.96 0-1.2 0.24c-0.24 0.24-0.24 0.48-0.24 1.040 0 0.48 0 0.8 0 1.28h2.64v3.040h-2.64v13.2h-4.080v-13.28h-2.16v-3.040h2.16v-1.040c0-1.76 0.24-3.040 0.72-3.6 0.72-1.040 2.16-1.52 4.32-1.52 0.24 0.080 0.48 0.080 0.72 0.080z"></path>
    </symbol>
    <symbol id="icon-instagram" viewBox="0 0 32 32">
        <path
            d="M28.718 10.756c-0.016-1.074-0.215-2.14-0.596-3.145-0.667-1.716-2.024-3.073-3.743-3.737-0.994-0.373-2.044-0.573-3.108-0.596-1.368-0.061-1.801-0.078-5.273-0.078s-3.916 0-5.274 0.078c-1.062 0.023-2.112 0.223-3.106 0.596-1.719 0.664-3.078 2.021-3.743 3.737-0.374 0.992-0.576 2.041-0.596 3.101-0.061 1.367-0.080 1.8-0.080 5.265s0 3.909 0.080 5.265c0.021 1.062 0.222 2.109 0.596 3.104 0.667 1.715 2.024 3.071 3.744 3.736 0.989 0.386 2.040 0.604 3.106 0.639 1.369 0.061 1.803 0.080 5.274 0.080s3.916 0 5.274-0.080c1.062-0.021 2.112-0.221 3.108-0.595 1.719-0.666 3.076-2.022 3.743-3.737 0.374-0.994 0.574-2.041 0.596-3.104 0.061-1.365 0.080-1.798 0.080-5.265-0.003-3.466-0.003-3.906-0.082-5.264zM15.99 22.531c-3.631 0-6.572-2.936-6.572-6.561s2.941-6.561 6.572-6.561c3.628 0 6.572 2.936 6.572 6.561s-2.944 6.561-6.572 6.561zM22.824 10.696c-0.849 0-1.532-0.684-1.532-1.53s0.684-1.53 1.532-1.53c0.846 0 1.531 0.684 1.531 1.53s-0.685 1.53-1.531 1.53z"></path>
        <path
            d="M15.992 19.976c2.211 0 4.004-1.793 4.004-4.004s-1.793-4.004-4.004-4.004-4.004 1.793-4.004 4.004c0 2.211 1.793 4.004 4.004 4.004z"></path>
    </symbol>
    <symbol id="icon-Property-1Default-1" viewBox="0 0 32 32">
        <path
            d="M16 0c8.837 0 16 7.163 16 16s-7.163 16-16 16c-8.837 0-16-7.163-16-16s7.163-16 16-16z"></path>
        <path fill="none" stroke="#fff" style="stroke: var(--color1, #fff)" strokeLinejoin="round"
            strokeLinecap="round" stroke-miterlimit="4" stroke-width="1.1429"
            d="M14.286 10.857h3.429"></path>
        <path fill="none" stroke="#fff" style="stroke: var(--color1, #fff)" strokeLinejoin="round"
            strokeLinecap="round" stroke-miterlimit="4" stroke-width="1.1429"
            d="M10.857 12.571h10.286M20 12.571l-0.401 6.011c-0.060 0.902-0.090 1.353-0.285 1.695-0.172 0.301-0.43 0.543-0.742 0.694-0.354 0.172-0.806 0.172-1.71 0.172h-1.725c-0.904 0-1.356 0-1.71-0.172-0.312-0.151-0.57-0.393-0.742-0.694-0.195-0.342-0.225-0.793-0.285-1.695l-0.401-6.011"></path>
    </symbol>
    <symbol id="icon-Property-1Default" viewBox="0 0 32 32">
        <path
            d="M16 0c8.837 0 16 7.163 16 16s-7.163 16-16 16c-8.837 0-16-7.163-16-16s7.163-16 16-16z"></path>
        <path fill="none" stroke="#fff" style="stroke: var(--color1, #fff)" strokeLinejoin="round"
            strokeLinecap="round" stroke-miterlimit="4" stroke-width="1.1429"
            d="M14.286 10.857h3.429"></path>
        <path fill="none" stroke="#fff" style="stroke: var(--color1, #fff)" strokeLinejoin="round"
            strokeLinecap="round" stroke-miterlimit="4" stroke-width="1.1429"
            d="M10.857 12.571h10.286M20 12.571l-0.401 6.011c-0.060 0.902-0.090 1.353-0.285 1.695-0.172 0.301-0.43 0.543-0.742 0.694-0.354 0.172-0.806 0.172-1.71 0.172h-1.725c-0.904 0-1.356 0-1.71-0.172-0.312-0.151-0.57-0.393-0.742-0.694-0.195-0.342-0.225-0.793-0.285-1.695l-0.401-6.011"></path>
    </symbol>
    <symbol id="icon-Property-1Hover-1" viewBox="0 0 32 32">
        <path
            d="M16 0c8.837 0 16 7.163 16 16s-7.163 16-16 16c-8.837 0-16-7.163-16-16s7.163-16 16-16z"></path>
        <path fill="none" stroke="#fff" style="stroke: var(--color1, #fff)" strokeLinejoin="round"
            strokeLinecap="round" stroke-miterlimit="4" stroke-width="1.1429"
            d="M13.143 18.857l5.714-5.714"></path>
        <path fill="none" stroke="#fff" style="stroke: var(--color1, #fff)" strokeLinejoin="round"
            strokeLinecap="round" stroke-miterlimit="4" stroke-width="1.1429"
            d="M13.143 13.143h5.714v5.714"></path>
    </symbol>
    <symbol id="icon-Property-1Hover" viewBox="0 0 32 32">
        <path
            d="M16 0c8.837 0 16 7.163 16 16s-7.163 16-16 16c-8.837 0-16-7.163-16-16s7.163-16 16-16z"></path>
        <path fill="none" stroke="#fff" style="stroke: var(--color1, #fff)" strokeLinejoin="round"
            strokeLinecap="round" stroke-miterlimit="4" stroke-width="1.1429"
            d="M21.051 11.777c-0.292-0.292-0.638-0.524-1.020-0.682s-0.79-0.239-1.203-0.239c-0.413 0-0.822 0.081-1.203 0.239s-0.728 0.39-1.020 0.682l-0.606 0.606-0.606-0.606c-0.59-0.59-1.389-0.921-2.223-0.921s-1.633 0.331-2.223 0.921c-0.59 0.59-0.921 1.389-0.921 2.223s0.331 1.633 0.921 2.223l5.051 5.051 5.051-5.051c0.292-0.292 0.524-0.638 0.682-1.020s0.239-0.79 0.239-1.203c0-0.413-0.081-0.822-0.239-1.203s-0.39-0.728-0.682-1.020z"></path>
    </symbol>
    <symbol id="icon-trash-04" viewBox="0 0 32 32">
        <path strokeLinejoin="round" strokeLinecap="round" stroke-miterlimit="4" stroke-width="2.6"
            d="M12 4h8"></path>
        <path strokeLinejoin="round" strokeLinecap="round" stroke-miterlimit="4" stroke-width="2.6"
            d="M4 8h24M25.333 8l-0.935 14.026c-0.14 2.104-0.21 3.156-0.665 3.954-0.4 0.702-1.004 1.267-1.731 1.62-0.826 0.4-1.881 0.4-3.99 0.4h-4.025c-2.109 0-3.163 0-3.99-0.4-0.727-0.353-1.331-0.917-1.731-1.62-0.455-0.798-0.525-1.85-0.665-3.954l-0.935-14.026"></path>
    </symbol>
    <symbol id="icon-youTube" viewBox="0 0 32 32">
        <path
            d="M30.112 9.356c0 0-0.288-2.080-1.152-2.971-1.056-1.189-2.304-1.189-2.88-1.288-4.032-0.297-10.080-0.297-10.080-0.297s-6.048 0-10.080 0.297c-0.576 0.099-1.824 0.099-2.88 1.288-0.864 0.891-1.152 2.971-1.152 2.971s-0.288 2.377-0.288 4.754v2.179c0 2.377 0.288 4.853 0.288 4.853s0.288 2.080 1.152 2.971c1.056 1.189 2.496 1.189 3.168 1.288 2.304 0.099 9.792 0.198 9.792 0.198s6.048 0 10.080-0.297c0.576-0.099 1.824-0.099 2.88-1.288 0.864-0.891 1.152-2.971 1.152-2.971s0.288-2.377 0.288-4.754v-2.179c0-2.377-0.288-4.754-0.288-4.754zM13.024 19.063v-8.32l7.776 4.16-7.776 4.16z"></path>
    </symbol>
    <symbol id="icon-arrow-up-right" viewBox="0 0 24 24" fill="none" stroke="currentColor"
        stroke-width="2" strokeLinecap="round" strokeLinejoin="round">
        <line x1="7" y1="17" x2="17" y2="7"></line>
        <polyline points="7 7 17 7 17 17"></polyline>
    </symbol>
    <symbol id="icon-chevron-down" viewBox="0 0 32 32">
        <path strokeLinejoin="round" strokeLinecap="round" stroke-miterlimit="4"
            stroke-width="2.6667" d="M8 12l8 8 8-8"></path>
    </symbol>
    <symbol id="icon-eye" viewBox="0 0 32 32">
        <path strokeLinejoin="round" strokeLinecap="round" stroke-miterlimit="4"
            stroke-width="2.6667"
            d="M1.333 16s5.333-10.667 14.667-10.667 14.667 10.667 14.667 10.667-5.333 10.667-14.667 10.667-14.667-10.667-14.667-10.667z"></path>
        <path strokeLinejoin="round" strokeLinecap="round" stroke-miterlimit="4"
            stroke-width="2.6667"
            d="M20 16c0 2.209-1.791 4-4 4s-4-1.791-4-4c0-2.209 1.791-4 4-4s4 1.791 4 4z"></path>
    </symbol>
    <symbol id="icon-eye-off" viewBox="0 0 32 32">
        <path strokeLinejoin="round" strokeLinecap="round" stroke-miterlimit="4"
            stroke-width="2.6667"
            d="M23.92 23.92c-2.175 1.671-4.923 2.696-7.908 2.747l-0.012 0c-9.333 0-14.667-10.667-14.667-10.667 1.713-3.152 3.977-5.791 6.689-7.877l0.058-0.043M13.2 5.653c0.833-0.203 1.788-0.32 2.771-0.32 0.010 0 0.020 0 0.030 0h-0.002c9.333 0 14.667 10.667 14.667 10.667-0.871 1.615-1.827 3.008-2.91 4.29l0.030-0.036M18.827 18.827c-0.732 0.784-1.772 1.273-2.926 1.273-2.209 0-4-1.791-4-4 0-1.154 0.489-2.194 1.271-2.924l0.002-0.002"></path>
        <path strokeLinejoin="round" strokeLinecap="round" stroke-miterlimit="4"
            stroke-width="2.6667" d="M1.333 1.333l29.333 29.333"></path>
    </symbol>
    <symbol id="icon-heart" viewBox="0 0 32 32">
        <path strokeLinejoin="round" strokeLinecap="round" stroke-miterlimit="4"
            stroke-width="2.6667"
            d="M27.787 6.147c-1.327-1.328-3.161-2.149-5.187-2.149s-3.859 0.821-5.187 2.149l-1.413 1.413-1.413-1.413c-1.327-1.327-3.161-2.148-5.187-2.148-4.051 0-7.335 3.284-7.335 7.335 0 2.026 0.821 3.859 2.148 5.187l11.787 11.787 11.787-11.787c1.328-1.327 2.149-3.161 2.149-5.187s-0.821-3.859-2.149-5.187l-0-0z"></path>
    </symbol>
    <symbol id="icon-trash-041" viewBox="0 0 32 32">
        <path strokeLinejoin="round" strokeLinecap="round" stroke-miterlimit="4"
            stroke-width="2.6667" d="M12 4h8"></path>
        <path strokeLinejoin="round" strokeLinecap="round" stroke-miterlimit="4"
            stroke-width="2.6667"
            d="M4 8h24M25.333 8l-0.935 14.026c-0.14 2.104-0.21 3.156-0.665 3.954-0.4 0.702-1.004 1.267-1.731 1.62-0.826 0.4-1.881 0.4-3.99 0.4h-4.025c-2.109 0-3.163 0-3.99-0.4-0.727-0.353-1.331-0.917-1.731-1.62-0.455-0.798-0.525-1.85-0.665-3.954l-0.935-14.026"></path>
    </symbol>
    <symbol id="icon-mobile-menu" viewBox="0 0 32 32">
        <path fill="none" strokeLinejoin="round" strokeLinecap="round" stroke-miterlimit="4"
            stroke-width="2.2857" stroke="" d="M28 13.333h-24"></path>
        <path fill="none" strokeLinejoin="round" strokeLinecap="round" stroke-miterlimit="4"
            stroke-width="2.2857" stroke="" d="M28 8h-24"></path>
        <path fill="none" strokeLinejoin="round" strokeLinecap="round" stroke-miterlimit="4"
            stroke-width="2.2857" stroke="" d="M28 18.667h-24"></path>
        <path fill="none" strokeLinejoin="round" strokeLinecap="round" stroke-miterlimit="4"
            stroke-width="2.2857" stroke="" d="M28 24h-24"></path>
    </symbol>
    <symbol id="icon-close-btn" viewBox="0 0 32 32">
        <path fill="none" strokeLinejoin="round" strokeLinecap="round" stroke-miterlimit="4"
            stroke-width="2.6667" stroke="" d="M24 8l-16 16"></path>
        <path fill="none" strokeLinejoin="round" strokeLinecap="round" stroke-miterlimit="4"
            stroke-width="2.6667" stroke="" d="M8 8l16 16"></path>
    </symbol>
    <symbol id="icon-plus" viewBox="0 0 24 24" fill="none" stroke="currentColor" stroke-width="2"
        strokeLinecap="round" strokeLinejoin="round">
        <line x1="12" y1="5" x2="12" y2="19"></line>
        <line x1="5" y1="12" x2="19" y2="12"></line>
    </symbol>
    <symbol id="cross" width="24" height="24" viewBox="0 0 24 24" fill="none"
        xmlns="http://www.w3.org/2000/svg">
        <path d="M18 6L6 18" stroke="#050505" stroke-width="2" strokeLinecap="round"
            strokeLinejoin="round" />
        <path d="M6 6L18 18" stroke="#050505" stroke-width="2" strokeLinecap="round"
            strokeLinejoin="round" />
    </symbol>
    <symbol id="icon-testimoals" viewBox="0 0 59 48">
        <path
            d="M0 48V31.9412C0 25.9412 1.05672 20.4118 3.17015 15.3529C5.28358 10.2941 8.86468 5.17647 13.9134 0L23.0716 7.2353C20.1363 10.1765 17.9055 12.9412 16.3791 15.5294C14.8527 18.1177 13.8547 20.7647 13.3851 23.4706H24.6567V48H0ZM34.3433 48V31.9412C34.3433 25.9412 35.4 20.4118 37.5134 15.3529C39.6269 10.2941 43.208 5.17647 48.2567 0L57.4149 7.2353C54.4796 10.1765 52.2488 12.9412 50.7224 15.5294C49.196 18.1177 48.198 20.7647 47.7284 23.4706H59V48H34.3433Z"
            fill="#E8E8E8" />
    </symbol>
</svg>