<!-- Generated by IcoMoon.io -->
<svg version="1.1" xmlns="http://www.w3.org/2000/svg" width="1024" height="1024" viewBox="0 0 1024 1024">
<g id="icomoon-ignore">
</g>
<path fill="#050505" d="M0 0h1024v1024h-1024v-1024z"></path>
<path fill="#fff" d="M232.107 477.867v-107.588h-26.214v-30.857h37.956l-11.742 10.65v-19.934c0-18.022 4.642-31.585 13.926-40.687 9.466-9.102 23.575-13.653 42.325-13.653 4.187 0 8.647 0.273 13.38 0.819 4.915 0.546 9.193 1.638 12.834 3.277v31.676c-2.549-0.91-5.461-1.547-8.738-1.911-3.277-0.546-6.463-0.819-9.557-0.819-4.187 0-8.101 0.728-11.742 2.185-3.459 1.456-6.281 3.914-8.465 7.373-2.002 3.277-3.004 7.737-3.004 13.38v14.473l-5.734-6.827h40.687v30.857h-34.679v107.588h-41.233zM383.939 480.87c-14.746 0-27.58-2.913-38.502-8.738-10.741-6.007-19.115-14.382-25.122-25.122-5.825-10.741-8.738-23.575-8.738-38.502 0-14.746 2.913-27.489 8.738-38.229 6.007-10.741 14.382-19.024 25.122-24.849 10.923-5.825 23.757-8.738 38.502-8.738s27.58 2.913 38.502 8.738c10.923 5.825 19.297 14.108 25.122 24.849 6.007 10.741 9.011 23.484 9.011 38.229 0 14.928-3.004 27.762-9.011 38.502-5.825 10.741-14.199 19.115-25.122 25.122-10.923 5.825-23.757 8.738-38.502 8.738zM383.939 449.741c9.466 0 16.93-3.368 22.391-10.103 5.643-6.736 8.465-17.112 8.465-31.13s-2.822-24.303-8.465-30.857c-5.461-6.554-12.925-9.83-22.391-9.83s-17.021 3.277-22.665 9.83c-5.461 6.554-8.192 16.839-8.192 30.857s2.731 24.394 8.192 31.13c5.643 6.736 13.198 10.103 22.665 10.103zM543.278 480.87c-14.746 0-27.58-2.913-38.502-8.738-10.741-6.007-19.115-14.382-25.122-25.122-5.825-10.741-8.738-23.575-8.738-38.502 0-14.746 2.913-27.489 8.738-38.229 6.007-10.741 14.382-19.024 25.122-24.849 10.923-5.825 23.757-8.738 38.502-8.738s27.58 2.913 38.502 8.738c10.923 5.825 19.297 14.108 25.122 24.849 6.007 10.741 9.011 23.484 9.011 38.229 0 14.928-3.004 27.762-9.011 38.502-5.825 10.741-14.199 19.115-25.122 25.122-10.923 5.825-23.757 8.738-38.502 8.738zM543.278 449.741c9.466 0 16.93-3.368 22.391-10.103 5.643-6.736 8.465-17.112 8.465-31.13s-2.822-24.303-8.465-30.857c-5.461-6.554-12.925-9.83-22.391-9.83s-17.021 3.277-22.665 9.83c-5.461 6.554-8.192 16.839-8.192 30.857s2.731 24.394 8.192 31.13c5.643 6.736 13.198 10.103 22.665 10.103zM691.421 480.87c-12.015 0-22.665-2.913-31.949-8.738-9.102-5.825-16.293-14.108-21.572-24.849-5.097-10.741-7.646-23.666-7.646-38.775 0-14.928 2.549-27.762 7.646-38.502s12.288-18.933 21.572-24.576c9.284-5.825 19.934-8.738 31.949-8.738 10.923 0 20.662 2.64 29.218 7.919 8.738 5.097 14.564 12.015 17.476 20.753h-3.55v-88.474h41.233v200.977h-40.687v-27.034h3.55c-2.913 9.102-8.738 16.384-17.476 21.845s-18.66 8.192-29.764 8.192zM703.709 449.741c9.466 0 17.112-3.368 22.938-10.103s8.738-17.112 8.738-31.13c0-14.017-2.913-24.303-8.738-30.857s-13.471-9.83-22.938-9.83c-9.466 0-17.203 3.277-23.211 9.83-5.825 6.554-8.738 16.839-8.738 30.857s2.913 24.394 8.738 31.13c6.007 6.736 13.744 10.103 23.211 10.103zM221.73 750.933v-138.445h41.233v138.445h-41.233zM220.092 589.824v-38.502h44.237v38.502h-44.237zM360.835 753.937c-24.030 0-42.78-6.463-56.252-19.388s-20.207-30.492-20.207-52.702c0-14.382 2.822-26.943 8.465-37.683 5.825-10.741 13.835-19.115 24.030-25.122 10.377-6.19 22.482-9.284 36.318-9.284 13.653 0 25.031 2.913 34.133 8.738 9.284 5.825 16.202 14.017 20.753 24.576 4.733 10.377 7.1 22.482 7.1 36.318v9.557h-96.939v-20.48h66.901l-4.642 3.823c0-11.469-2.367-20.116-7.1-25.941-4.551-6.007-11.196-9.011-19.934-9.011-9.648 0-17.112 3.55-22.391 10.65-5.097 7.1-7.646 17.294-7.646 30.583v4.369c0 13.471 3.277 23.484 9.83 30.037 6.736 6.554 16.384 9.83 28.945 9.83 7.464 0 14.473-0.91 21.026-2.731 6.736-2.002 13.107-5.097 19.115-9.284l11.469 27.307c-6.918 5.097-14.928 9.011-24.030 11.742-8.92 2.731-18.569 4.096-28.945 4.096zM486.937 753.937c-12.379 0-23.666-1.365-33.86-4.096s-18.842-6.554-25.941-11.469l10.65-27.307c7.1 4.369 14.928 7.828 23.484 10.377 8.738 2.549 17.385 3.823 25.941 3.823 8.010 0 13.926-1.274 17.749-3.823s5.734-6.007 5.734-10.377c0-3.641-1.274-6.463-3.823-8.465-2.367-2.002-6.098-3.459-11.196-4.369l-28.126-5.188c-11.833-2.367-20.844-6.736-27.034-13.107s-9.284-14.655-9.284-24.849c0-8.92 2.367-16.748 7.1-23.484 4.915-6.918 11.924-12.288 21.026-16.111s19.752-5.734 31.949-5.734c10.377 0 20.207 1.274 29.491 3.823s17.203 6.463 23.757 11.742l-11.196 26.487c-5.643-4.187-12.197-7.555-19.661-10.103-7.282-2.549-14.29-3.823-21.026-3.823-8.738 0-15.019 1.456-18.842 4.369-3.823 2.731-5.734 6.281-5.734 10.65 0 3.277 1.092 6.007 3.277 8.192 2.367 2.185 5.916 3.823 10.65 4.915l28.399 5.188c12.197 2.185 21.481 6.281 27.853 12.288s9.557 14.29 9.557 24.849c0 9.648-2.549 17.84-7.646 24.576s-12.288 11.924-21.572 15.565c-9.102 3.641-19.661 5.461-31.676 5.461z"></path>
</svg>
